<svg xmlns="http://www.w3.org/2000/svg" viewBox="0 0 227.32 23.81"><title>ezy2</title><g id="Layer_2" data-name="Layer 2"><g id="Layer_1-2" data-name="Layer 1"><path d="M81.07,23.81A6.6,6.6,0,0,1,77.71,17c.12-1.57,0-3.15,0-4.79a3.05,3.05,0,0,0-.65-.08c-2.26.41-4-.57-5.61-2-1.84-1.53-3.83-2.86-5.7-4.35a2.06,2.06,0,0,1-.69-1.35c-.09-1.41,0-2.84,0-4.36h3.47a3.62,3.62,0,0,1,.06,1c-.36,1.88.48,3.08,2,4.09S73.38,7.85,75,8.41s3.73,0,5.58.21a6.9,6.9,0,0,0,6.13-2.15A4.09,4.09,0,0,1,87.29,6c2-1.39,4.11-2.78,2.94-5.89H94c0,1.61,0,3.18,0,4.75a1.52,1.52,0,0,1-.62.92q-3.94,3-7.94,5.93a2.3,2.3,0,0,1-1.21.37c-.91.06-1.82,0-2.86,0V23.81Z"/><path d="M61.14,5.4l-22.68,7,0,.24h22.8v3.56h-22c-3.87,0-5.72-1.44-6.77-5.39l22.61-7,0-.26H32.49V0H55.15C58.35,0,60.63,2,61.14,5.4Z"/><path d="M21.43,6.23V9.77H6l-.14.28a9.59,9.59,0,0,0,.88.81,9.23,9.23,0,0,0,5.72,1.78H28.62v3.54H27.3c-4.87,0-9.75.05-14.63,0A13.81,13.81,0,0,1,.27,8.94a1.54,1.54,0,0,1,0-1.75A13.72,13.72,0,0,1,12.58,0C17.46,0,22.34,0,27.22,0h1.4V3.55H27.4c-5.08,0-10.16,0-15.24,0A8.14,8.14,0,0,0,5.8,6.23Z"/><path d="M173.91,13.88c3.7,0,7.34-.09,11,.06a5.24,5.24,0,0,1,2.75,1.26c1.16.92,1.14,2.05-.19,2.79a16.14,16.14,0,0,1-4,1.23,8.22,8.22,0,0,1-1.75,0c1,1.28,1.87,2.37,3.61,2.12a23.91,23.91,0,0,1,3.18,0V23c-1.7,0-3.41,0-5.11,0-.23,0-.47-.27-.67-.45a8.4,8.4,0,0,1-1.26-1.27c-1.42-2-3.38-2.41-5.8-1.85v3.5h-1.69Zm12.57,2.75-.08-.56c-3.5-1.27-7.16-.28-10.79-.67v2c3.25,0,6.42,0,9.6,0C185.64,17.31,186.06,16.87,186.48,16.63Z"/><path d="M144.25,17.54h12a6.29,6.29,0,0,1-5.22,5.23,47.38,47.38,0,0,1-7.05.17c-.74,0-1.45-.7-2.18-1.08l.14-.45c.41,0,.82-.07,1.23-.07,2.43,0,4.87,0,7.31-.13a4,4,0,0,0,3.29-1.95H141.86a6.71,6.71,0,0,1,6.24-5.41c2-.07,3.92,0,5.88,0,1.27,0,1.61.26,2.39,1.64-2.7,0-5.32-.09-7.92,0a9.89,9.89,0,0,0-3,.89C145,16.53,144.77,17,144.25,17.54Z"/><path d="M224.88,19.22h-12a6.5,6.5,0,0,1,5.92-5.35c2.11-.1,4.23-.06,6.35,0,1.1,0,1.51.35,2.13,1.62-2.56,0-5,0-7.54,0a5.24,5.24,0,0,0-4.18,1.65,2.6,2.6,0,0,0-.21.42h11.87a6.32,6.32,0,0,1-5.17,5.25A57.09,57.09,0,0,1,215,23a2.39,2.39,0,0,1-2.24-1.64c1.17,0,2.19,0,3.2,0,1.84,0,3.68,0,5.51-.12A4.15,4.15,0,0,0,224.88,19.22Z"/><path d="M199,19.21a5.16,5.16,0,0,0,4.32,2.13c2.19,0,4.39,0,6.59,0h1.35v1.83c-3.34-.16-6.67-.2-10-.54A5.47,5.47,0,0,1,198.47,21C196.28,19,196.52,17,199,15.2a6.91,6.91,0,0,1,4.11-1.38h7.78a2.21,2.21,0,0,1,.41.09v1.54c-2.09,0-4.19,0-6.3,0-.84,0-1.68-.06-2.51,0a3.76,3.76,0,0,0-3.23,2.11h8.2v1.62Z"/><path d="M109.79,13.86c3.11,0,6.11-.14,9.09,0a6,6,0,0,1,5.24,3.94,2,2,0,0,1-.2,1.54,6.34,6.34,0,0,1-5.54,3.56c-2.83.13-5.66,0-8.59,0Zm1.61,1.62c0,1.82,0,3.55,0,5.28a.84.84,0,0,0,.59.54c2.44,0,4.88,0,7.31-.15,1.32-.09,3.16-1.74,3.09-2.65A3.34,3.34,0,0,0,120.29,16a3.26,3.26,0,0,0-1.46-.47C116.4,15.46,114,15.48,111.4,15.48Z"/><path d="M95.44,15.59v7.33h-1.6V13.65a10.68,10.68,0,0,1,2.63.83c3,1.92,6,4,8.92,6l1.3.81V13.88h1.62v9.33a12.82,12.82,0,0,1-2.94-1c-2.94-1.88-5.79-3.9-8.68-5.87C96.34,16.12,96,15.91,95.44,15.59Z"/><path d="M125.74,13.88h1.64c0,1.39,0,2.72,0,4a3.29,3.29,0,0,0,2.84,3.27,40.59,40.59,0,0,0,5.73,0A3.08,3.08,0,0,0,138.7,18c0-1.34,0-2.67,0-4.1h1.61c0,1.89.37,3.9-.1,5.7-.56,2.16-2.59,3.17-4.77,3.35a24.73,24.73,0,0,1-5.37-.15,4.81,4.81,0,0,1-4.33-5.12Z"/><path d="M166,23H164.4V15.51h-6.46V13.9h14.48v1.53H166Z"/><path d="M189.7,22.58c.42-.38.79-.94,1.29-1.11a1,1,0,0,0,.77-1.09c0-1.61,0-3.22,0-4.87l-1.84-.09c0-.93.34-1.55,1.33-1.58,1.32,0,2.63,0,4,0,.17,1.35-.79,1.5-1.8,1.74,0,1.67,0,3.36,0,5,0,.24.42.55.7.67a3.7,3.7,0,0,0,1.08.11c.2,1.07-.44,1.48-1.24,1.54-1.34.09-2.69,0-4,0Z"/><path d="M86.91,22.89c-.14-1.27.86-1.41,1.78-1.69V15.52l-1.81-.13c0-.94.39-1.51,1.3-1.54,1.35,0,2.71,0,4.06,0-.13,1.18-.28,1.31-1.79,1.74v5.63l1.82.24C92.26,23.18,90.75,23.18,86.91,22.89Z"/></g></g></svg>